<svg width="256" height="256" viewBox="0 0 256 256" fill="none" xmlns="http://www.w3.org/2000/svg">
<path d="M168 105.333V21.3333C228.82 48.0278 244.406 76.8419 244 149.333L168 105.333Z" fill="#FF7DB3"/>
<path d="M126.667 126.667V9.33334C87.7965 9.33334 50.6561 31.727 28 66.6667C7.91274 97.6448 -2.23022 137.63 29.3333 193.333C63.2027 253.107 139.292 252.234 182.667 237.333C182.667 237.333 235.566 195.908 230.667 188L126.667 126.667Z" fill="#FFD8E8"/>
<path d="M162.463 113.789C160.966 112.925 159.723 111.682 158.859 110.185C157.995 108.688 157.54 106.99 157.54 105.262V16.57C157.54 14.9949 157.918 13.4428 158.642 12.044C159.366 10.6452 160.415 9.44056 161.701 8.53113C162.987 7.62169 164.473 7.03403 166.033 6.81749C167.593 6.60095 169.182 6.76185 170.667 7.28667C199.411 17.4822 223.577 37.5919 238.826 64.0038C254.075 90.4158 259.408 121.399 253.866 151.389C253.579 152.939 252.925 154.398 251.958 155.642C250.991 156.887 249.739 157.881 248.308 158.541C246.877 159.201 245.308 159.509 243.734 159.437C242.16 159.365 240.625 158.916 239.261 158.128L162.463 113.789ZM177.232 31.4952V99.5769L236.164 133.601C236.259 131.736 236.307 129.869 236.307 128C236.286 108.038 230.76 88.4677 220.338 71.442C209.916 54.4163 195 40.5941 177.232 31.4952Z" fill="#FF7DB3"/>
<path d="M16.8967 64.491C16.9796 64.3272 17.0551 64.1611 17.1481 64C17.2741 63.7818 17.4143 63.5769 17.554 63.3723C28.8377 44.0944 44.9676 28.1031 64.3422 16.9862C83.7168 5.8693 105.662 0.0134329 128 0C130.611 2.61132e-05 133.115 1.03739 134.962 2.8839C136.808 4.73041 137.846 7.2348 137.846 9.84615V122.315L235.247 178.55C237.509 179.856 239.159 182.006 239.835 184.529C240.511 187.051 240.157 189.738 238.851 192C238.81 192.072 238.758 192.133 238.715 192.203C238.606 192.424 238.498 192.645 238.371 192.861C224.134 217.079 202.326 235.942 176.309 246.54C150.292 257.139 121.511 258.885 94.403 251.509C67.2955 244.133 43.367 228.045 26.3069 205.725C9.24689 183.405 0.00268555 156.093 -0.000320435 128C-0.0275574 105.716 5.79921 83.8154 16.8967 64.491ZM118.154 20.1445C102.546 21.5789 87.4353 26.3825 73.8644 34.2239C60.2935 42.0653 48.5855 52.7577 39.5484 65.5634L118.154 110.946V20.1445ZM128 236.308C145.333 236.259 162.404 232.073 177.793 224.098C193.183 216.122 206.445 204.587 216.478 190.453L29.6787 82.6039C22.054 99.1048 18.7059 117.26 19.9431 135.395C21.1803 153.53 26.9629 171.062 36.758 186.374C46.553 201.687 60.0452 214.287 75.9909 223.013C91.9365 231.74 109.822 236.312 128 236.308Z" fill="#FF7DB3"/>
<path d="M86.3642 217.357L57.3092 188.302C55.5636 186.557 55.5636 183.726 57.3092 181.981L63.6306 175.659C65.3761 173.913 68.2066 173.913 69.9521 175.659L89.525 195.232L131.448 153.309C133.193 151.564 136.024 151.564 137.769 153.309L144.091 159.631C145.836 161.376 145.836 164.207 144.091 165.952L92.6858 217.358C90.94 219.103 88.1098 219.103 86.3642 217.357Z" fill="#424242"/>
</svg>
